<svg width="10" height="10" fill="none" xmlns="http://www.w3.org/2000/svg"><g clip-path="url(#clip0_3296_15909)"><mask id="mask0_3296_15909" style="mask-type:luminance" maskUnits="userSpaceOnUse" x="0" y="0" width="10" height="10"><path d="M0 10h10V0H0v10z" fill="#fff"/></mask><g mask="url(#mask0_3296_15909)"><path d="M5.963 4.998l-3.74 3.741a.542.542 0 00-.16.387.54.54 0 00.16.387l.327.327c.103.103.24.16.387.16a.543.543 0 00.387-.16l4.454-4.454a.543.543 0 00.16-.388.543.543 0 00-.16-.388L3.328.16A.543.543 0 002.94 0a.543.543 0 00-.387.16l-.328.327a.548.548 0 000 .774l3.737 3.737z" fill="#333"/></g></g><defs><clipPath id="clip0_3296_15909"><path fill="#fff" transform="rotate(-90 5 5)" d="M0 0h10v10H0z"/></clipPath></defs></svg>