<svg width="16" height="16" fill="none" xmlns="http://www.w3.org/2000/svg"><g filter="url(#filter0_d_3178_16227)" clip-path="url(#clip0_3178_16227)"><path fill-rule="evenodd" clip-rule="evenodd" d="M13.8 5.823v7.973c0 1.203-.97 2.177-2.182 2.177H4.382a2.178 2.178 0 01-2.181-2.177V5.823H13.8zm-1.45 0v7.974a.73.73 0 01-.726.726H4.377a.73.73 0 01-.726-.726V5.823h8.699zM5.825 2.198c0-.4.327-.725.718-.725h2.914a.725.725 0 010 1.45H6.543a.72.72 0 01-.718-.725zm0 5.073c0-.4.322-.723.725-.723.4 0 .725.329.725.723v4.355c0 .4-.322.722-.725.722a.727.727 0 01-.725-.722V7.27zm2.9 0c0-.4.322-.723.725-.723.4 0 .725.329.725.723v4.355c0 .4-.322.722-.725.722a.727.727 0 01-.725-.722V7.27zm-4.35-4.348H1.469a.728.728 0 00-.719.725.72.72 0 00.72.725h13.06c.39 0 .72-.324.72-.725a.72.72 0 00-.72-.725h-2.905v-.725A2.177 2.177 0 009.45.023h-2.9a2.177 2.177 0 00-2.174 2.175l-.001.725z" fill="red"/></g><defs><clipPath id="clip0_3178_16227"><path fill="#fff" d="M0 0h16v16H0z"/></clipPath><filter id="filter0_d_3178_16227" x="-261.545" y="-249.157" width="539.09" height="540.539" filterUnits="userSpaceOnUse" color-interpolation-filters="sRGB"><feFlood flood-opacity="0" result="BackgroundImageFix"/><feColorMatrix in="SourceAlpha" values="0 0 0 0 0 0 0 0 0 0 0 0 0 0 0 0 0 0 127 0" result="hardAlpha"/><feOffset dy="13.115"/><feGaussianBlur stdDeviation="131.148"/><feColorMatrix values="0 0 0 0 0 0 0 0 0 0 0 0 0 0 0 0 0 0 0.1 0"/><feBlend in2="BackgroundImageFix" result="effect1_dropShadow_3178_16227"/><feBlend in="SourceGraphic" in2="effect1_dropShadow_3178_16227" result="shape"/></filter></defs></svg>