<svg width="20" height="27" fill="none" xmlns="http://www.w3.org/2000/svg"><g clip-path="url(#clip0_3294_15906)"><path d="M17.5 3.333h-4.167A3.336 3.336 0 0010 0a3.336 3.336 0 00-3.333 3.333H2.5a2.5 2.5 0 00-2.5 2.5v18.334a2.5 2.5 0 002.5 2.5h15a2.5 2.5 0 002.5-2.5V5.833a2.5 2.5 0 00-2.5-2.5zM5 22.083c-.693 0-1.25-.557-1.25-1.25 0-.692.557-1.25 1.25-1.25s1.25.558 1.25 1.25c0 .693-.557 1.25-1.25 1.25zm0-5c-.693 0-1.25-.557-1.25-1.25 0-.692.557-1.25 1.25-1.25s1.25.558 1.25 1.25c0 .693-.557 1.25-1.25 1.25zm0-5c-.693 0-1.25-.557-1.25-1.25 0-.692.557-1.25 1.25-1.25s1.25.558 1.25 1.25c0 .693-.557 1.25-1.25 1.25zm5-10c.693 0 1.25.558 1.25 1.25 0 .693-.557 1.25-1.25 1.25s-1.25-.557-1.25-1.25c0-.692.557-1.25 1.25-1.25zm6.667 19.167c0 .23-.188.417-.417.417h-7.5a.418.418 0 01-.417-.417v-.833c0-.23.188-.417.417-.417h7.5c.23 0 .417.188.417.417v.833zm0-5c0 .23-.188.417-.417.417h-7.5a.418.418 0 01-.417-.417v-.833c0-.23.188-.417.417-.417h7.5c.23 0 .417.188.417.417v.833zm0-5c0 .23-.188.417-.417.417h-7.5a.418.418 0 01-.417-.417v-.833c0-.23.188-.417.417-.417h7.5c.23 0 .417.188.417.417v.833z" fill="#fff"/></g><defs><clipPath id="clip0_3294_15906"><path fill="#fff" d="M0 0h20v26.667H0z"/></clipPath></defs></svg>