<svg width="19" height="23" fill="none" xmlns="http://www.w3.org/2000/svg"><path d="M5.535 13.069a.669.669 0 010-1.336h8.652a.668.668 0 010 1.336H5.536zm0-3.172a.668.668 0 010-1.335h6.48a.668.668 0 010 1.335h-6.48zm0-3.343a.668.668 0 010-1.335h8.652a.668.668 0 010 1.335H5.536z" fill="#201B1B"/><path d="M3.146 22.254a2.274 2.274 0 01-2.271-2.272V2.881A2.274 2.274 0 013.146.609h13.458a2.274 2.274 0 012.271 2.272v13.662a.75.75 0 01-.16.462l-3.917 4.964a.742.742 0 01-.586.285H3.146zm0-20.151a.78.78 0 00-.778.777v17.102a.78.78 0 00.778.778h9.834v-3.047a2.274 2.274 0 012.271-2.271h2.13V2.88a.78.78 0 00-.777-.778H3.146zm12.105 14.832a.78.78 0 00-.778.777v2.259l2.395-3.036H15.25z" fill="#201B1B"/></svg>